<svg id="图层_1" data-name="图层 1" xmlns="http://www.w3.org/2000/svg" viewBox="0 0 991.71 592.94"><defs><style>.cls-1{fill:#221814;}</style></defs><title>OOWOW  LOGO</title><path class="cls-1" d="M537.69,269.73A24.19,24.19,0,0,0,554.84,311h0A24.24,24.24,0,0,0,579,286.88a24.18,24.18,0,0,0-7.09-17.15,23.92,23.92,0,0,0-17.09-7.11h0a24.09,24.09,0,0,0-17.15,7.11Zm17.15,59.64a42.53,42.53,0,0,1,0-85.06h0a42.53,42.53,0,0,1,0,85.06Z"/><path class="cls-1" d="M706.8,301.28,682.45,255.7a10.85,10.85,0,0,0-9.55-5.87h0a10.9,10.9,0,0,0-9.55,5.87L639,301.25l-22.51-51.42h-20l31.87,72.83a10.74,10.74,0,0,0,19.53.82l25-46.8,25,46.83a10.9,10.9,0,0,0,9.53,5.86h.17l.28,0a10.87,10.87,0,0,0,9.55-6.69l31.86-72.83h-20Z"/><path class="cls-1" d="M512.37,249.83H493.1l-22.51,51.45L446.24,255.7a10.85,10.85,0,0,0-9.55-5.87h0a10.83,10.83,0,0,0-9.55,5.87l-24.3,45.55-22.5-51.42h-20l31.86,72.83a10.75,10.75,0,0,0,19.54.82l25-46.8,25,46.83a10.89,10.89,0,0,0,9.55,5.86l.43,0a10.92,10.92,0,0,0,9.55-6.69l31.86-72.83Z"/><path class="cls-1" d="M348.64,256.78a42.15,42.15,0,0,0-30.07-12.47h0a42.18,42.18,0,0,0-30,12.44c-.21.21-.4.42-.6.63l-21.87,21.86v0l-24.58,24.61-.14.14A24,24,0,0,1,224.29,311h0a24.21,24.21,0,0,1,0-48.41h0a24.29,24.29,0,0,1,23.21,31l17.81-17.8a42.57,42.57,0,0,0-41-31.49h0a42.53,42.53,0,0,0,0,85.06h0a42.13,42.13,0,0,0,30-12.47h0l47.19-47.17h0v0a24.2,24.2,0,1,1-7.11,17.1,24.5,24.5,0,0,1,.93-6.75l-17.8,17.83a42.66,42.66,0,0,0,41,31.49h0a42.5,42.5,0,0,0,30.07-72.59Z"/></svg>