<svg xmlns="http://www.w3.org/2000/svg" xmlns:xlink="http://www.w3.org/1999/xlink" x="0px" y="0px" viewBox="0 0 500 500" enable-background="new 0 0 500 500">
  <path d="M119.8 336l1.2-.6c1.2-.6 2.3-1.3 3.3-2s2.1-1.4 3.2-2.1c1.1-.8 2.2-1.6 3.4-2.5.4-.3.8-.6 1.1-1.1.3-.4.3-.8.3-1.1 0-.7-.3-1.2-.7-1.7-1-1-2.1-.9-3.4.1-1.9 1.3-3.8 2.7-5.8 4-1.8 1.2-3.9 2.4-6.3 3.5-2.3 1.1-4.6 1.9-6.8 2.5-2.2.6-4.7.9-7.2.9H85.4v-9.3c0-.7-.3-1.2-.7-1.7-1-1-2.3-1-3.3 0-.6.6-.7 1.2-.7 1.7v23.2c0 .7.3 1.2.7 1.7.5.5 1.1.7 1.6.7s1.1-.2 1.6-.7c.6-.6.7-1.2.7-1.7v-9.3H102c2.5-.2 4.9.1 7.2.7s4.6 1.4 6.8 2.5c2.2 1 4.3 2.2 6.3 3.4 2 1.3 4 2.7 5.8 4 1.3 1.1 2.4 1.1 3.4.2.6-.6.7-1.2.7-1.7s-.2-.9-.3-1l-.1-.1c-.3-.4-.7-.8-1.1-1.1l-1.2-.9c-.8-.6-1.5-1.1-2.2-1.7-1-.8-2.1-1.6-3.2-2.1-1-.6-2.2-1.3-3.3-2-.4-.2-.7-.4-1.1-.6-.8-.4-1.6-.9-2.5-1.2l-1.7-.8 1.7-.8 2.6-1.3z" fill="#1E95D4"/>
  <path d="M188.5 324.7c-.6.6-.7 1.2-.7 1.7v9.3h-42.1v-9.3c0-.7-.3-1.2-.7-1.7-.9-.9-2.3-.9-3.3 0-.6.6-.7 1.2-.7 1.7v23.2c0 .7.3 1.2.7 1.7.9.9 2.3.9 3.3 0 .6-.6.7-1.2.7-1.7v-9.3h42.1v9.3c0 .7.3 1.2.6 1.6l.1.1c.5.4 1.1.6 1.7.6.6 0 1.2-.2 1.6-.7.6-.6.7-1.2.7-1.7v-23.2c0-.7-.3-1.2-.7-1.7-.9-.8-2.3-.8-3.3.1z" fill="#1E95D4"/>
  <path d="M247.4 347.9l-16.6-22.2c-.8-1-1.6-1.7-2.6-2.2-2.2-1.1-4.8-1.1-7.2.1-1.2.7-2.1 1.4-2.7 2.3l-16.5 22.2c-.3.3-.6.6-.6 1.5 0 .7.3 1.2.6 1.6l.1.1c1.1 1 2.5.9 3.5-.2l16-21.2c.3-.4.7-.8 1.3-1.3 1.4-1.2 2.8-1.2 4.2 0 .4.3.6.6.9.9l.3.3 16 21.3c.4.6 1.1.9 1.7.9h.1c.6 0 1.2-.2 1.6-.7l.1-.1c.3-.6.5-1.1.5-1.8 0-.2 0-.5-.1-.8-.2-.3-.4-.5-.6-.7z" fill="#1E95D4"/>
  <path d="M307.4 328.7c-1.1-1.4-2.3-2.5-3.7-3.2-1.5-.8-3-1.2-4.7-1.2h-39.7c-.7 0-1.2.3-1.7.7-.6.6-.7 1.2-.7 1.7 0 .7.3 1.2.7 1.7.6.6 1.2.7 1.7.7h38.3c1.7 0 3.1.3 4.3 1 1 .6 2 1.4 2.7 2.3.6.8 1.1 1.9 1.3 3 .2 1 .4 2.1.4 2.9 0 1-.1 1.9-.4 2.8-.2 1-.6 2.1-1.4 3.1-.7.9-1.6 1.7-2.7 2.3-1.2.7-2.7 1-4.3 1h-36V338c0-.7-.3-1.2-.7-1.7-.6-.6-1.2-.7-1.7-.7-.7 0-1.2.3-1.7.7-.6.6-.7 1.2-.7 1.7v11.6c0 .7.3 1.2.7 1.7.5.5 1.1.6 1.6.6h40.5c1.7-.1 3.1-.5 4.4-1.4 1.6-1.1 2.6-2.1 3.4-3.2.9-1.2 1.7-2.7 2.2-4.4.5-1.6.8-3.3.8-4.8s-.3-3.2-.8-4.9c-.3-1.5-1.1-3-2.1-4.5z" fill="#1E95D4"/>
  <path d="M363.7 348l-16.6-22.2c-.8-1-1.6-1.7-2.6-2.2-2.2-1.1-4.8-1.1-7.2.1-1.2.7-2.1 1.4-2.7 2.3l-16.5 22.2c-.3.3-.6.6-.6 1.5 0 .7.3 1.2.6 1.6l.1.1c1 .8 2.4.7 3.3-.3l16-21.3c.3-.3.7-.8 1.3-1.4 1.4-1.2 2.8-1.2 4.2 0 .4.3.6.6.9.9l.3.3 16 21.3c.4.6 1.1.9 1.7.9h.1c.6 0 1.2-.2 1.6-.7.6-.6.7-1.2.7-1.7 0-.2 0-.5-.1-.8-.1-.2-.3-.4-.5-.6z" fill="#1E95D4"/>
  <path d="M426.3 340.7c-.4-.9-1-1.8-1.8-2.6s-1.7-1.4-2.6-1.8c-1-.4-2.1-.6-3.2-.6H381c-.9 0-1.8-.4-2.5-1s-1-1.5-1-2.4c0-1 .4-1.9 1.1-2.6.6-.6 1.5-1 2.5-1h41.5c.7 0 1.2-.3 1.7-.7.6-.6.7-1.2.7-1.7 0-.7-.3-1.2-.7-1.7-.6-.6-1.2-.7-1.7-.7h-41.3c-1.1 0-2.2.2-3.1.6-1 .4-1.9 1.1-2.6 1.8-.8.8-1.4 1.7-1.8 2.6-.4.9-.6 2-.6 3.1s.2 2.2.6 3.1c.4 1 1.1 1.9 1.8 2.6.8.8 1.7 1.4 2.6 1.8.9.4 2 .6 3.1.6h37.9c.9 0 1.8.4 2.5 1 .7.7 1.1 1.6 1.1 2.5 0 1-.4 1.8-1.1 2.5-.6.6-1.4 1-2.4 1h-41.6c-.7 0-1.2.3-1.7.7-.6.6-.7 1.2-.7 1.7 0 .7.3 1.2.7 1.7.6.6 1.2.7 1.7.7h40.5v.1h.6c1.2 0 2.3-.2 3.2-.6 1.1-.4 1.9-1 2.6-1.7.8-.8 1.4-1.7 1.8-2.6.4-.9.6-2 .6-3.1 0-1.2-.2-2.3-.7-3.3z" fill="#1E95D4"/>
  <g>
    <path d="M316.3 286.7H188.5c-5.7 0-10.3-4.6-10.3-10.3V148.6c0-5.7 4.6-10.3 10.3-10.3h127.8c5.7 0 10.3 4.6 10.3 10.3v127.8c-.1 5.7-4.7 10.3-10.3 10.3zM188.5 139.8c-4.9 0-8.8 4-8.8 8.8v127.8c0 4.9 4 8.8 8.8 8.8h127.8c4.9 0 8.8-4 8.8-8.8V148.6c0-4.9-4-8.8-8.8-8.8H188.5z" fill="#1E95D4"/>
    <path d="M191.3 273.7c-1.2-1.2-1.2-3 0-4.2l118.1-118.1c1.2-1.2 3-1.2 4.2 0 1.2 1.2 1.2 3 0 4.2L195.4 273.7c-1.1 1.2-3 1.2-4.1 0z" fill="#1E95D4"/>
    <path d="M202.9 229.2c-1.7 0-3.5-.4-5.2-1.1-4.6-2-7.4-6.7-7.4-11.7v-62.9c0-1.6 1.3-3 3-3 1.6 0 3 1.3 3 3v63.2c0 3.2 2.1 5.3 4.1 6.1 2 .8 4.9.9 7.2-1.4l70-70c1.2-1.2 3-1.2 4.2 0 1.2 1.2 1.2 3 0 4.2l-70 70c-2.6 2.3-5.7 3.6-8.9 3.6z" fill="#C9CACA"/>
    <path d="M309.4 273.7l-44.1-44.2c-1.2-1.2-1.2-3 0-4.2 1.2-1.2 3-1.2 4.2 0l44.1 44.2c1.2 1.2 1.2 3 0 4.2-1.2 1.2-3.1 1.2-4.2 0z" fill="#F8B62D"/>
    <path d="M276.6 273.7L248.9 246c-1.2-1.2-1.2-3 0-4.2 1.2-1.2 3-1.2 4.2 0l27.7 27.7c1.2 1.2 1.2 3 0 4.2-1.2 1.2-3 1.2-4.2 0z" fill="#8FC31F"/>
    <path d="M215.9 192.2c-1.6 0-3-1.3-3-3v-35.8c0-1.6 1.3-3 3-3 1.6 0 3 1.3 3 3v35.8c-.1 1.7-1.4 3-3 3z" fill="#E60012"/>
  </g>
</svg>