<svg width="400" height="400" viewBox="0 0 400 400" xmlns="http://www.w3.org/2000/svg"><g fill-rule="evenodd"><path d="M0 200v200h400V0H0v200m256.4-87.5c1.67 1.003 2.421 1.791 3.283 3.446l1.117 2.145-.009 54.855c-.01 60.933.178 56.503-2.516 59.393-2.474 2.654 2.203 2.462-59.559 2.454L143 234.787l-1.581-.896c-5.015-2.84-4.682 1.754-4.539-62.691.134-60.712-.159-54.879 2.904-57.734 2.5-2.331-1.017-2.198 59.034-2.233l55.417-.033 2.165 1.3m-113.208.832c-1.546.717-2.54 1.547-3.508 2.93l-.884 1.261.029 55.539c.033 62.321-.249 56.772 3.002 59.025l1.569 1.086 55.12.014c59.958.014 56.113.151 58.567-2.091 2.203-2.014 2.13.087 2.017-58.512L259 118.6l-.907-1.84c-.678-1.377-1.397-2.107-2.854-2.9l-1.947-1.06-54.546.032c-40.714.025-54.802.152-55.554.5m81.256 9.026c1.452 1.176.812 2.154-5.849 8.934a7918.437 7918.437 0 00-20.584 21.108c-35.137 36.141-33.401 34.586-38.615 34.586-4.618 0-7.742-1.869-9.915-5.932l-.885-1.654-.113-27.658c-.122-29.891-.185-28.942 1.913-28.942 2.058 0 2-.805 2 27.944v26.686l.9 1.782c3.14 6.215 7.72 5.334 15.914-3.064 2.978-3.051 12.427-12.748 20.998-21.548 23.313-23.934 32.338-33.002 32.844-33.001.25 0 .877.342 1.392.759m25.323.271c.346.345.629 1.021.629 1.502 0 1.08-99.026 100.269-100.104 100.269-.949 0-2.296-1.418-2.296-2.416 0-.551 16.141-16.959 49.579-50.4 51.823-51.828 50.531-50.616 52.192-48.955m-75.8.825c.808 1.027.829 1.469.829 17.399v16.344l-1.9 1.799c-1.045.99-2.125 1.801-2.4 1.802-.903.004-.708-36.72.2-37.641 1.017-1.031 2.319-.913 3.271.297m56.167 79.284c19.914 19.917 20.138 20.181 18.224 21.38-1.399.877-3.11-.64-21.544-19.097l-18.983-19.005 1.158-1.208c.636-.664 1.349-1.208 1.583-1.208.235 0 9.038 8.612 19.562 19.138m-22.391 7.216c12.525 12.55 12.602 12.653 10.603 14.144-1.472 1.098-1.102 1.403-14.089-11.615l-11.539-11.566 1.28-1.459c.705-.802 1.401-1.458 1.548-1.458.147 0 5.636 5.379 12.197 11.954m-28.552 56.303c2.549 2.145 15.663 20.111 15.529 21.274-.12 1.036-2.724 1.964-2.724.97 0-.193-.316-.699-.702-1.126-.386-.426-1.958-2.485-3.492-4.575-1.534-2.09-2.887-3.89-3.006-4-.119-.11-1.471-1.91-3.003-4-6.348-8.657-5.532-8.955-16.737 6.1-6.015 8.083-6.803 8.797-8.18 7.42-.991-.991-.653-1.59 5.635-9.967.394-.524 2.464-3.292 4.6-6.15 5.427-7.26 8.639-8.841 12.08-5.946m96.446-.147c.747.501 4.644 5.283 8.659 10.628 7.214 9.603 8.193 11.344 6.699 11.918-1.381.53-2.497-.408-5.599-4.705-1.76-2.438-3.38-4.64-3.6-4.892-.22-.252-1.57-2.048-3-3.989-5.641-7.66-6.688-7.984-10.268-3.182-.62.832-1.222 1.602-1.338 1.712-.116.11-1.463 1.91-2.994 4-1.531 2.09-2.882 3.89-3.003 4-.121.11-1.383 1.783-2.804 3.718-2.787 3.794-4.788 4.723-5.121 2.377-.106-.746 4.251-7.461 5.512-8.495.134-.11 1.902-2.493 3.929-5.295 6.577-9.096 8.896-10.495 12.928-7.795m-166.726.39c.539.404.688 1.344.776 4.9l.109 4.4 17.7.104 17.7.104v-4.59c0-4.995.488-6.041 2.353-5.043 1.19.637 1.247 1.149 1.247 11.284 0 10.076-.166 11.141-1.734 11.141-1.619 0-1.866-.7-1.866-5.28v-4.32h-35.6v4.32c0 4.595-.245 5.28-1.89 5.28-1.503 0-1.71-1.407-1.71-11.626 0-9.041.045-9.619.8-10.374.935-.935 1.214-.975 2.115-.3m232.311-.086c.865.463 1.029 1.971.294 2.706-.359.359-5.044.48-18.618.48h-18.138l-.982.982c-1.694 1.693-1.121 4.129 1.177 5.002.693.264 7.201.416 17.774.416h16.681l1.489 1.011c4.217 2.866 3.492 9.604-1.229 11.431-1.488.575-37.412.46-37.994-.122-.665-.665-.6-1.525.182-2.389.623-.688 1.738-.731 18.868-.731 20.402 0 19.67.104 19.67-2.8 0-3.069.567-2.974-19.213-3.2-16.918-.193-17.568-.229-18.634-1.025-4.705-3.515-3.485-10.461 2.089-11.888 1.589-.407 35.809-.288 36.584.127m-282.106.466c.314.314.48 1.973.48 4.8V276h8.454c4.765 0 9.171-.188 10.1-.432.905-.237 2.366-.627 3.246-.866 2.465-.67 7.486-3.27 11.415-5.912 3.761-2.529 4.391-2.747 5.181-1.795 1.344 1.62-2.235 4.825-9.834 8.804-1.34.702-2.663 1.416-2.939 1.587-.327.202.441.783 2.216 1.677 6.683 3.363 11.529 7.281 10.932 8.837-.538 1.401-1.948 1.109-5.008-1.039-8.691-6.098-12.652-7.261-24.729-7.261H59.6v4.177c0 4.87-1.562 6.981-3.294 4.452-.467-.681-.367-20.168.108-21.055.463-.865 1.971-1.029 2.706-.294m181.968.359c7.262 4.029 7.65 15.683.676 20.302l-1.901 1.259h-36.535l-.464-1.019c-.613-1.345-.606-9.432.009-10.782.383-.84.708-1.016 1.7-.919l1.227.12.113 4.5.113 4.5h16.407c18.068 0 17.811.033 19.691-2.5 2.365-3.184 2.138-7.959-.51-10.723-2.151-2.247-3.357-2.377-22.026-2.377h-16.373l-.252-1.005c-.559-2.228-.844-2.195 18.674-2.195 17.469 0 17.978.022 19.451.839" fill="#fff"/><path d="M170.8 141.6c0 9.9.058 18 .128 18s.7-.511 1.4-1.136l1.272-1.135V123.6h-2.8v18" fill="#e60012"/><path d="M141.991 112.5c-2.486 1.257-4.267 3.743-4.581 6.392-.659 5.552-.03 109.671.67 110.949.804 1.468 3.208 3.66 4.59 4.186 1.319.501 110.941.501 112.26 0 1.382-.526 3.786-2.718 4.59-4.186.631-1.151.68-5.267.68-56.641 0-61.207.186-56.736-2.472-59.279-2.58-2.468 1.151-2.321-59.03-2.321H143.77l-1.779.9m113.055.665c1.801.818 3.389 2.676 4.099 4.795.663 1.981.588 108.905-.078 110.741-.569 1.568-2.306 3.478-4.014 4.413-1.166.639-5.059.686-56.253.686h-55l-1.861-1.094c-1.382-.813-2.129-1.631-2.9-3.179L138 227.443l.002-54.022c.002-35.926.141-54.519.416-55.509.552-1.989 2.193-3.864 4.165-4.76 2.542-1.154 109.92-1.142 112.463.013m-56.914 58.504c-27.101 27.098-49.361 49.599-49.466 50.002-.349 1.331 1.076 2.603 2.226 1.987 1.853-.992 99.108-98.613 99.108-99.482 0-1.042-.734-1.776-1.776-1.776-.551 0-16.859 16.041-50.092 49.269m-25.231 94.59c-.835.411-2.62 2.419-5 5.625-2.035 2.742-5.376 7.237-7.423 9.99-3.771 5.07-4.268 6.326-2.502 6.326.788 0 2.123-1.538 7.292-8.4 11.285-14.981 9.641-14.966 20.724-.2 6.523 8.69 8.208 10.275 8.208 7.717 0-1.176-14.015-19.937-15.647-20.946-1.509-.933-3.891-.98-5.652-.112m97.699-.319c-1.657.539-2.319 1.301-9.585 11.033-7.315 9.799-8.049 11.106-6.365 11.348.682.098 2.173-1.656 7.88-9.266 10.64-14.191 9.222-14.251 20.493.861 6.382 8.558 7.684 9.778 8.1 7.595.105-.548-6.827-10.387-10.209-14.491-.354-.429-1.525-1.989-2.603-3.466-2.56-3.508-4.803-4.56-7.711-3.614m-213.533 1.127c-.607.607-.298 21.235.321 21.473 1.341.515 1.812-.828 1.812-5.169V279.2l7.3-.09c12.343-.152 15.074.31 20.725 3.504 1.349.762 2.542 1.386 2.652 1.386.109 0 1.648.998 3.419 2.218 3.336 2.298 4.419 2.565 4.624 1.14.176-1.228-4.982-4.997-10.883-7.953-3.734-1.87-3.778-1.616.668-3.919 5.507-2.853 10.095-6.256 10.095-7.488 0-1.602-1.125-1.392-4.168.779-1.559 1.113-2.916 2.023-3.016 2.023-.099 0-.819.434-1.6.964-5.152 3.495-10.218 4.604-21.116 4.622l-8.7.014v-4.32c0-4.659-.743-6.404-2.133-5.013M106.8 277.35c0 10.885.067 11.337 1.604 10.849.734-.233.796-.611.796-4.826V278.8h36.4v4.351c0 4.525.393 5.644 1.795 5.106.519-.199.605-1.743.605-10.871v-10.639l-1.1.126-1.1.127-.2 4.6-.2 4.6h-36l-.2-4.6-.2-4.6-1.1-.127-1.1-.126v10.603m96.655-9.95c-.694 1.81-.79 1.8 17.128 1.8 17.824 0 18.456.057 20.882 1.887 3.872 2.921 3.42 10.887-.773 13.613L239 285.8l-16.487.12-16.487.121-.214-.921c-.117-.506-.258-2.63-.312-4.72-.099-3.76-.11-3.8-1.1-3.8h-1l-.116 5c-.063 2.75-.015 5.405.108 5.9l.223.9 17.693-.009c16.299-.008 17.819-.066 19.309-.743 7.402-3.363 7.499-16.316.149-20.066-2.088-1.065-36.907-1.235-37.311-.182m99.037.44c-3.639 2.868-3.164 8.189.908 10.16 1.572.761 2.47.8 18.504.8h16.851l1.06.911c1.508 1.298 1.533 3.523.056 5l-1.088 1.089-18.28.119c-18.951.124-19.318.159-18.461 1.759.604 1.129 35.838 1.111 37.964-.019 3.84-2.04 4.328-6.948 1-10.059l-1.069-1-17.804-.2-17.803-.2-.965-1.122c-1.318-1.533-1.282-3.452.09-4.823l1.054-1.055h18.319c17.939 0 18.323-.016 18.571-.796.502-1.584.262-1.604-18.923-1.6l-18.676.005-1.308 1.031" fill="#1e95d4"/><path d="M171.4 123.2c-.141.228.204.4.8.4.596 0 .941-.172.8-.4-.136-.22-.496-.4-.8-.4-.304 0-.664.18-.8.4m2.295 17.251l-.095 17.051-.9.661-.9.66.923-.438c1.339-.635 1.295.04 1.177-18.185l-.109-16.8-.096 17.051m-3.199 1.649c-.09 16.771.026 18.92.942 17.438.176-.284.11-.353-.172-.179-.34.211-.485-4.262-.566-17.438l-.109-17.721-.095 17.9" fill="#eb3847"/><path d="M259.394 173.2c0 30.03.048 42.315.106 27.3.058-15.015.058-39.585 0-54.6s-.106-2.73-.106 27.3M194.3 199.557c-1.232 1.249-.89 1.672 10.616 13.152 11.566 11.54 12.412 12.203 13.804 10.811.964-.964.279-1.782-11.019-13.15-11.593-11.665-12.131-12.1-13.401-10.813M172.131 233.9c14.702.058 38.642.058 53.2 0s2.529-.106-26.731-.106-41.171.048-26.469.106m-.631.8c15.015.058 39.585.058 54.6 0s2.73-.106-27.3-.106-42.315.048-27.3.106m142.627 32c5.02.063 13.12.063 18 0 4.88-.064.773-.116-9.127-.116s-13.893.052-8.873.116M56.574 277.6c0 5.61.056 7.905.125 5.1a251.33 251.33 0 000-10.2c-.069-2.805-.125-.51-.125 5.1m91.599-.2c0 5.5.057 7.805.126 5.123.069-2.682.069-7.182 0-10-.069-2.818-.125-.623-.126 4.877m-41.6.2c0 5.39.057 7.595.126 4.9.069-2.695.069-7.105 0-9.8-.069-2.695-.126-.49-.126 4.9m2.889-1.5c.102.165 8.174.3 17.938.3s17.836-.135 17.938-.3c.102-.165-7.97-.3-17.938-.3s-18.04.135-17.938.3m204.665.2c4.58.064 11.96.064 16.4-.001 4.44-.064.693-.116-8.327-.116s-12.653.052-8.073.117m-108.379 4.9c0 2.31.066 3.255.147 2.1a36.327 36.327 0 000-4.2c-.081-1.155-.147-.21-.147 2.1M74.1 279.076c.385.1 1.015.1 1.4 0 .385-.101.07-.183-.7-.183s-1.085.082-.7.183m237.027 6.824c4.91.063 12.83.063 17.6 0 4.77-.064.753-.116-8.927-.116s-13.583.052-8.673.116" fill="#8fc31f"/><path d="M170.623 123.689c-.838 1.196-.957 36.721-.123 36.696.275-.008 1.22-.658 2.1-1.445 1.318-1.178 1.373-1.278.312-.566-.708.475-1.394 1.035-1.524 1.245-.853 1.38-.988-.988-.988-17.33 0-15.382.082-17.828.623-18.6.342-.489.532-.889.422-.889-.11 0-.48.4-.822.889m3.56 16.911c0 9.24.053 12.963.117 8.273.064-4.69.064-12.25-.001-16.8-.064-4.55-.116-.713-.116 8.527" fill="#f3848d"/><path d="M209.27 184.526c-.479.509-.87 1.096-.87 1.305 0 .678 38.198 38.569 38.881 38.569.852 0 1.919-1.067 1.919-1.919 0-.719-37.91-38.881-38.625-38.881-.239 0-.827.417-1.305.926" fill="#f8b62d"/><path d="M142.938 111.506c-.254.162 24.884.294 55.862.294s56.116-.132 55.862-.294c-.254-.162-25.392-.294-55.862-.294-30.47 0-55.608.132-55.862.294m-2.738 1.544c-.66.562-.84.838-.4.615 1.196-.607 2.457-1.64 2-1.638-.22.001-.94.461-1.6 1.023m117.07.483c3.419 3.075 3.165-1.962 3.041 60.343-.061 30.402.026 54.907.193 54.454.167-.452.257-25.611.2-55.908l-.104-55.085-1.2-1.9c-.66-1.046-1.83-2.28-2.6-2.743-1.24-.746-1.186-.65.47.839m-85.17-.833c14.685.058 38.715.058 53.4 0 14.685-.058 2.67-.106-26.7-.106-29.37 0-41.385.048-26.7.106m-29.3.389c-1.274.478-2.63 1.69-3.328 2.973-.488.895-.521 1.073-.102.538 1.366-1.741 2.419-2.677 3.597-3.194 1.19-.522 1.056-.777-.167-.317m112.367.699c2.111 1.244 2.666 1.911 3.308 3.97.268.857.555 1.351.64 1.097.5-1.499-2.491-5.189-4.723-5.826-.562-.16-.227.168.775.759m-117.7 2.479c-.147.146-.256.641-.242 1.1.024.766.057.756.409-.125.392-.979.31-1.453-.167-.975m.783 2.983c-.36 1.802-.215 106.716.15 108.15.168.66.327-23.685.353-54.1.026-30.415-.02-55.3-.103-55.3-.083 0-.262.563-.4 1.25M136.994 173c0 30.14.048 42.411.106 27.269.058-15.142.058-39.802 0-54.8-.058-14.998-.106-2.609-.106 27.531m77.204-42.901c-4.621 4.675-15.414 15.701-23.986 24.501-8.571 8.8-18.02 18.497-20.998 21.548-8.194 8.398-12.774 9.279-15.914 3.064l-.9-1.782v-26.686c0-28.749.058-27.944-2-27.944-2.098 0-2.035-.949-1.913 28.942l.113 27.658.885 1.654c2.173 4.063 5.297 5.932 9.915 5.932 5.214 0 3.478 1.555 38.615-34.586a7918.437 7918.437 0 0120.584-21.108c6.661-6.78 7.301-7.758 5.849-8.934-1.457-1.179-1.367-1.247-10.25 7.741m-16.619 41.485C164.141 205.025 148 221.433 148 221.984c0 1.014 1.362 2.427 2.3 2.384.441-.019.292-.18-.401-.433-3.123-1.141-5.875 1.844 47.946-52.004 49.492-49.516 49.557-49.579 50.955-49.366.979.148 1.22.097.8-.17-1.743-1.112-1.413-1.423-52.021 49.189m52.475-47.585c-.041.762-11.822 12.792-49.554 50.6L151 224.2l49.736-49.636c42.989-42.903 49.712-49.767 49.555-50.6l-.182-.964-.055.999M174.583 140.8c0 9.13.052 12.865.117 8.3.064-4.565.064-12.035 0-16.6-.065-4.565-.117-.83-.117 8.3M227 205.2c10.338 10.34 18.887 18.8 18.997 18.8.11 0-8.259-8.46-18.597-18.8-10.338-10.34-18.887-18.8-18.997-18.8-.11 0 8.259 8.46 18.597 18.8m-32.998-5.742l-1.28 1.459 11.539 11.566c6.346 6.362 11.876 11.754 12.289 11.983.88.488 2.757-.677 2.988-1.855.127-.643-23.235-24.611-23.988-24.611-.147 0-.843.656-1.548 1.458m13.699 10.912c11.298 11.368 11.983 12.186 11.019 13.15-1.392 1.392-2.238.729-13.804-10.811-11.506-11.48-11.848-11.903-10.616-13.152 1.27-1.287 1.808-.852 13.401 10.813m50.785 18.291c-.247.804-.29 1.299-.096 1.1.392-.4.999-2.561.72-2.561-.096 0-.378.658-.624 1.461m-121.286.208c-.001 1.856 4.583 5.951 6.6 5.896.478-.013.17-.252-.764-.594-2.303-.844-4.024-2.313-4.985-4.252-.468-.946-.851-1.418-.851-1.05m1.6.306c0 .725 2.766 3.524 3.706 3.749.827.198.837.179.14-.255-1.601-.997-3.046-2.364-3.046-2.881 0-.297-.18-.652-.4-.788-.22-.136-.4-.057-.4.175m120.251 1.526c-.813 1.572-1.885 2.434-4.107 3.302-1.069.418-1.62.768-1.224.778.921.024 3.012-1.03 4.218-2.128.913-.83 2.283-3.053 1.883-3.053-.11 0-.457.495-.77 1.101m-2.018.462c-.38.42-1.224.985-1.875 1.254-.651.27-1.105.57-1.008.666.281.281 2.382-.923 3.213-1.842.419-.463.671-.841.561-.841-.11 0-.511.344-.891.763M171.3 233.5c15.125.058 39.875.058 55 0s2.75-.106-27.5-.106-42.625.048-27.5.106m1.065 32.612c-1.305.88-4.114 4.287-7.548 9.156-3.016 4.277-1.333 2.4 2.483-2.768 4.205-5.696 4.475-5.971 6.596-6.728.983-.351 1.213-.543.663-.554-.462-.01-1.45.392-2.194.894m4.95-.427c1.031.273 2.016.995 3.084 2.258.863 1.021 1.951 2.307 2.418 2.857.468.55.251.126-.481-.942-1.928-2.811-4.113-4.666-5.437-4.617-.966.037-.915.09.416.444m92.085.252c-.66.403-1.47 1.07-1.8 1.481-.332.413.079.236.917-.395 3.767-2.84 6.623-1.848 10.886 3.781 1.665 2.198 3.117 3.996 3.227 3.996.271 0-4.063-5.906-5.382-7.336-2.155-2.335-5.472-2.98-7.848-1.527m-162.6.863c-.755.755-.8 1.333-.8 10.374 0 10.219.207 11.626 1.71 11.626 1.644 0 1.89-.686 1.89-5.276v-4.316l17.8-.11 17.8-.11-17.9.006-17.9.006-.2 4.596c-.211 4.856-.878 6.079-2.274 4.171-1.131-1.547-.666-20.674.513-21.127 1.499-.575 1.761.107 1.761 4.579 0 2.384.135 4.418.3 4.52.677.421.089-8.72-.594-9.239-.889-.675-1.171-.635-2.106.3m39.1-.368c-.609.355-.689.988-.616 4.888l.085 4.48.13-4.177c.154-4.93.744-6.123 2.272-4.594.856.855.948 19.582.103 20.738-1.37 1.873-2.061.677-2.295-3.971l-.221-4.396-.079 4.22c-.084 4.495.152 5.18 1.787 5.18 1.573 0 1.734-1.057 1.734-11.374 0-11.158-.349-12.48-2.9-10.994m158.7-.147c-.44.106-.968.352-1.173.547-.205.195.244.177.997-.039 2.527-.725 36.202-.51 36.947.236.346.345.629.442.629.214 0-1.117-1.997-1.242-19.074-1.197-9.639.026-17.886.133-18.326.239m-248.186.889c-.904 1.689-.496 21.626.443 21.626.213 0 .195-.329-.043-.774-.444-.829-.599-19.479-.171-20.593.133-.348.67-.633 1.192-.633 1.179 0 1.334.595 1.465 5.6l.1 3.8 8.4.013 8.4.013-8.3-.121-8.3-.121v-4.312c0-2.82-.166-4.478-.48-4.792-.735-.735-2.243-.571-2.706.294m38.786.068l-1 .825 1.255-.694c1.497-.826 2.528-.542 2.591.714.036.708.089.751.233.194.455-1.752-1.439-2.391-3.079-1.039m108.004-.247c-.283.341-.386 1.023-.241 1.6l.252 1.005 16.693-.093 16.692-.094-16.6-.206-16.6-.207v-2h18.462c10.154 0 18.378-.135 18.276-.3-.395-.639-36.397-.352-36.934.295m38.196.812c.44.319 1.407 1.169 2.148 1.887 1.008.976 1.234 1.082.895.422-.479-.933-2.867-2.925-3.481-2.903-.199.007-.002.274.438.594m59.636.624c-.57.677-1.03 1.442-1.023 1.7.007.258.276.109.599-.331.322-.44.965-1.205 1.429-1.7.464-.495.66-.9.437-.9-.224 0-.873.554-1.442 1.231M91.8 269.448c-1.1.772-2.855 1.845-3.9 2.385-1.045.539-1.9 1.071-1.9 1.182 0 .111.765-.188 1.7-.663 1.89-.961 6.3-3.878 6.3-4.167 0-.276-.04-.253-2.2 1.263m249.662-.865c-.209.544-2.398.617-18.396.617-19.229 0-20.266.103-20.266 2.011 0 .194.442-.089.982-.629l.982-.982h18.169c18.243 0 20.249-.151 18.973-1.427-.114-.114-.314.07-.444.41m-78.192 4.473c-1.832 2.546-3.159 4.523-2.949 4.393.582-.36 6.901-9.051 6.57-9.036-.16.008-1.79 2.097-3.621 4.643m-90.337-2.956c-.674.715-3.972 4.99-7.33 9.5s-6.386 8.425-6.73 8.7c-.364.29-.43.5-.159.5.257 0 3.112-3.555 6.346-7.9 3.234-4.345 6.672-8.845 7.641-10 1.972-2.352 2.096-2.78.232-.8m4.267-1.17c0 .388 1.635 1.969 1.832 1.772.091-.091-.284-.588-.834-1.103-.549-.516-.998-.817-.998-.669m92.905.57c-1.171 1.046-3.424 4.1-3.025 4.1.191 0 .642-.495 1.003-1.1.36-.605 1.23-1.685 1.933-2.4 1.353-1.375 1.413-1.783.089-.6m3.895-.57c0 .388 1.635 1.969 1.832 1.772.091-.091-.284-.588-.834-1.103-.549-.516-.998-.817-.998-.669m-177.438 1.132l-.762.862 1.1-.708c1.134-.73 1.349-1.016.762-1.016-.186 0-.681.388-1.1.862m140.838-.226c.44.116 1.336.385 1.991.598.841.274 1.066.263.765-.038-.234-.234-1.13-.503-1.991-.598-.861-.095-1.205-.078-.765.038m-143.2 1.987c-.746.633-.885.868-.367.62.743-.356 2.092-1.646 1.716-1.641-.082.001-.689.461-1.349 1.021m147.394-.02c1.593 1.918 1.727 2.042 1.292 1.193-.227-.443-.834-1.162-1.349-1.598-.904-.764-.902-.75.057.405m58.12.797c.003 1.1.081 1.503.173.895.092-.609.09-1.509-.005-2-.095-.492-.171.005-.168 1.105m-119.374.218c.731.98 1.989 2.72 2.795 3.867.806 1.146 1.598 2.091 1.76 2.1.363.019-4.793-7.075-5.428-7.467-.252-.156.141.519.873 1.5m96.111-.861c3.896 5.377 4.996 6.805 5.257 6.823.169.011-.978-1.69-2.549-3.78s-2.946-3.8-3.057-3.8c-.11 0 .047.341.349.757m-89.788 4.143c1.676 2.255 4.137 5.581 5.468 7.391 1.331 1.81 2.49 3.222 2.574 3.137.168-.168-10.617-14.628-10.91-14.628-.1 0 1.191 1.845 2.868 4.1M91 273.829a37.222 37.222 0 01-3.339 1.815c-.956.446-1.651.9-1.543 1.007.221.222 4.601-2.077 5.98-3.139 1.305-1.005.755-.846-1.098.317m155.174 3.01c.014 1.849-.102 3.901-.258 4.561l-.283 1.2.565-1.2c.596-1.264.755-5.867.247-7.161-.165-.421-.286.739-.271 2.6M82.1 274.448c-.715.206-1.3.463-1.3.571 0 .29 2.138-.266 2.58-.671.436-.399.45-.4-1.28.1m161.146-.048c.019.33.178 1.05.354 1.6l.32 1 .034-1c.019-.55-.141-1.27-.354-1.6-.345-.533-.384-.533-.354 0m20.924 2.7c-1.266 1.705-2.57 3.415-2.898 3.8-.328.385-.433.693-.234.685.199-.009 1.021-.954 1.827-2.1.806-1.147 2.036-2.85 2.735-3.785.698-.935 1.18-1.7 1.07-1.7-.11 0-1.235 1.395-2.5 3.1m38.98-2.427c.453.88 1.909 1.602 2.347 1.164.13-.131-.057-.237-.415-.237s-1.04-.405-1.516-.9c-.862-.897-.863-.897-.416-.027m-3.15.515c0 .795 3.023 3.614 3.853 3.593.498-.013.285-.247-.639-.7-.762-.375-1.797-1.293-2.3-2.04-.503-.748-.914-1.132-.914-.853m-222.2.412l-.8.344.8-.012c.44-.006 1.25-.156 1.8-.332l1-.32-1-.012c-.55-.006-1.36.143-1.8.332m205.235.023l2.918 3.877c1.366 1.815 2.562 3.3 2.66 3.3.283 0-5.041-7.171-5.551-7.476-.34-.205-.347-.126-.027.299m-80.171 1.396c-.261.574-.464 2.922-.464 5.381s.203 4.807.464 5.381l.464 1.019h36.585l1.902-1.311c1.046-.721 2.179-1.756 2.519-2.3.372-.596-.075-.313-1.125.715-2.598 2.542-2.634 2.546-22.209 2.414l-17.6-.118-.112-5.545c-.075-3.748.038-5.725.349-6.1.254-.305.288-.555.076-.555-.211 0-.593.458-.849 1.019m135.936-.733c.33.122.96.388 1.4.59.787.362.788.358.024-.254-.428-.342-1.058-.608-1.4-.59-.539.027-.542.061-.024.254m-254.324.998c-.378.378.009.729 1.777 1.609 1.244.619 2.347 1.04 2.452.935.104-.104-.727-.59-1.848-1.08-1.601-.699-1.943-1.003-1.598-1.419.55-.662-.126-.702-.783-.045m257.5 1.062c.519.74 1.078 1.91 1.243 2.6.234.981.308 1.054.34.334.049-1.108-.841-2.925-1.817-3.709-.49-.394-.417-.153.234.775M159.6 282.217c-3.27 4.557-3.603 5.376-2.519 6.199.614.466.646.464.219-.015-.86-.964-.588-1.574 2.698-6.047 1.759-2.395 3.064-4.346 2.9-4.335-.164.01-1.648 1.899-3.298 4.198m84.049-3.417c-.033.33-.16 1.05-.282 1.6-.192.864-.16.903.232.288.249-.391.376-1.111.282-1.6-.095-.488-.199-.618-.232-.288m78.209.389c15.852.198 16.909.256 17.7.973 1.05.95 1.123 3.241.142 4.407-.699.83-.699.83.2.069 1.01-.855 1.222-3.186.387-4.273-1.164-1.516-1.813-1.567-18.761-1.476l-16.526.09 16.858.21M59.2 283.52c0 2.89-.165 4.506-.5 4.881-.425.477-.396.481.2.031.588-.445.7-1.197.7-4.706v-4.177l9.988.126c5.494.069 9.679.003 9.3-.147-.378-.149-4.963-.284-10.188-.3l-9.5-.028v4.32m127.2-2.62c.699.935 1.929 2.638 2.735 3.785.806 1.146 1.603 2.091 1.773 2.1.169.008-.978-1.695-2.549-3.785s-2.94-3.8-3.042-3.8c-.103 0 .385.765 1.083 1.7m69.473 2.119c-2.716 3.776-3.215 5.294-1.873 5.7.484.146.504.079.1-.349-.848-.899-.593-1.498 2.299-5.397 1.54-2.075 2.665-3.767 2.5-3.76-.164.008-1.526 1.72-3.026 3.806m26.552-3.163c1.953 2.907 6.248 8.538 6.634 8.698.253.104-1.066-1.823-2.93-4.282-3.143-4.145-5.051-6.42-3.704-4.416M80.6 280.4c1.196.514 2.195.514 1.4 0-.33-.213-.96-.378-1.4-.366l-.8.022.8.344m11.395 1.481c5.824 4.208 7.022 5.628 5.54 6.568-.418.264-.422.34-.022.345 2.961.035-1.214-5.154-5.913-7.351-.33-.154-.152.043.395.438m150.229.738c-.367.561-1.243 1.37-1.946 1.799-.703.428-1.067.78-.809.781.618.001 2.84-1.881 3.354-2.842.592-1.106.179-.925-.599.262m16.546 1.681c-.949 1.265-2.175 2.795-2.723 3.4s-.821 1.1-.607 1.1c.214 0 1.089-.945 1.944-2.1a685.497 685.497 0 012.533-3.4c.538-.715.888-1.3.779-1.3-.109 0-.976 1.035-1.926 2.3M87.2 282.984c0 .11.763.589 1.697 1.065.933.476 2.941 1.74 4.462 2.808 1.522 1.069 2.929 1.943 3.127 1.943.508 0-5.55-4.11-7.595-5.153-.93-.475-1.691-.773-1.691-.663m256.054.627c-.029.556-.342 1.423-.695 1.926-.352.503-.546 1.01-.429 1.126.385.386 1.522-2.302 1.349-3.19-.152-.779-.176-.764-.225.138m-53.292 1.168c1.342 1.928 1.514 2.768.738 3.591-.404.428-.384.495.1.349 1.215-.366.899-2.421-.632-4.119l-1.443-1.6 1.237 1.779m-83.762.821c.292.473 29.74.473 31.6 0 .66-.168-6.236-.327-15.324-.353-10.925-.031-16.439.089-16.276.353m95.662.331c-.782.864-.847 1.724-.182 2.389 1.613 1.613 39.92.435 39.92-1.228 0-.229-.379-.073-.842.346-1.206 1.092-37.885 1.414-38.776.34-1.578-1.901-1.048-1.963 18.661-2.184l18.357-.206-18.238-.094c-17.228-.089-18.275-.053-18.9.637" fill="#c9caca"/></g></svg>