<svg id="svg" version="1.1" width="400" height="400" viewBox="0 0 400 400" xmlns="http://www.w3.org/2000/svg" xmlns:xlink="http://www.w3.org/1999/xlink" ><g id="svgg"><path id="path0" d="M0.000 200.000 L 0.000 400.000 200.000 400.000 L 400.000 400.000 400.000 200.000 L 400.000 0.000 200.000 0.000 L 0.000 0.000 0.000 200.000 M256.400 112.500 C 258.070 113.503,258.821 114.291,259.683 115.946 L 260.800 118.091 260.791 172.946 C 260.781 233.879,260.969 229.449,258.275 232.339 C 255.801 234.993,260.478 234.801,198.716 234.793 L 143.000 234.787 141.419 233.891 C 136.404 231.051,136.737 235.645,136.880 171.200 C 137.014 110.488,136.721 116.321,139.784 113.466 C 142.284 111.135,138.767 111.268,198.818 111.233 L 254.235 111.200 256.400 112.500 M143.192 113.332 C 141.646 114.049,140.652 114.879,139.684 116.262 L 138.800 117.523 138.829 173.062 C 138.862 235.383,138.580 229.834,141.831 232.087 L 143.400 233.173 198.520 233.187 C 258.478 233.201,254.633 233.338,257.087 231.096 C 259.290 229.082,259.217 231.183,259.104 172.584 L 259.000 118.600 258.093 116.760 C 257.415 115.383,256.696 114.653,255.239 113.860 L 253.292 112.800 198.746 112.832 C 158.032 112.857,143.944 112.984,143.192 113.332 M224.448 122.358 C 225.900 123.534,225.260 124.512,218.599 131.292 C 215.298 134.651,206.036 144.150,198.015 152.400 C 162.878 188.541,164.614 186.986,159.400 186.986 C 154.782 186.986,151.658 185.117,149.485 181.054 L 148.600 179.400 148.487 151.742 C 148.365 121.851,148.302 122.800,150.400 122.800 C 152.458 122.800,152.400 121.995,152.400 150.744 L 152.400 177.430 153.300 179.212 C 156.440 185.427,161.020 184.546,169.214 176.148 C 172.192 173.097,181.641 163.400,190.212 154.600 C 213.525 130.666,222.550 121.598,223.056 121.599 C 223.306 121.599,223.933 121.941,224.448 122.358 M249.771 122.629 C 250.117 122.974,250.400 123.650,250.400 124.131 C 250.400 125.211,151.374 224.400,150.296 224.400 C 149.347 224.400,148.000 222.982,148.000 221.984 C 148.000 221.433,164.141 205.025,197.579 171.584 C 249.402 119.756,248.110 120.968,249.771 122.629 M173.971 123.454 C 174.779 124.481,174.800 124.923,174.800 140.853 L 174.800 157.197 172.900 158.996 C 171.855 159.986,170.775 160.797,170.500 160.798 C 169.597 160.802,169.792 124.078,170.700 123.157 C 171.717 122.126,173.019 122.244,173.971 123.454 M230.138 202.738 C 250.052 222.655,250.276 222.919,248.362 224.118 C 246.963 224.995,245.252 223.478,226.818 205.021 L 207.835 186.016 208.993 184.808 C 209.629 184.144,210.342 183.600,210.576 183.600 C 210.811 183.600,219.614 192.212,230.138 202.738 M207.747 209.954 C 220.272 222.504,220.349 222.607,218.350 224.098 C 216.878 225.196,217.248 225.501,204.261 212.483 L 192.722 200.917 194.002 199.458 C 194.707 198.656,195.403 198.000,195.550 198.000 C 195.697 198.000,201.186 203.379,207.747 209.954 M179.195 266.257 C 181.744 268.402,194.858 286.368,194.724 287.531 C 194.604 288.567,192.000 289.495,192.000 288.501 C 192.000 288.308,191.684 287.802,191.298 287.375 C 190.912 286.949,189.340 284.890,187.806 282.800 C 186.272 280.710,184.919 278.910,184.800 278.800 C 184.681 278.690,183.329 276.890,181.797 274.800 C 175.449 266.143,176.265 265.845,165.060 280.900 C 159.045 288.983,158.257 289.697,156.880 288.320 C 155.889 287.329,156.227 286.730,162.515 278.353 C 162.909 277.829,164.979 275.061,167.115 272.203 C 172.542 264.943,175.754 263.362,179.195 266.257 M275.641 266.110 C 276.388 266.611,280.285 271.393,284.300 276.738 C 291.514 286.341,292.493 288.082,290.999 288.656 C 289.618 289.186,288.502 288.248,285.400 283.951 C 283.640 281.513,282.020 279.311,281.800 279.059 C 281.580 278.807,280.230 277.011,278.800 275.070 C 273.159 267.410,272.112 267.086,268.532 271.888 C 267.912 272.720,267.310 273.490,267.194 273.600 C 267.078 273.710,265.731 275.510,264.200 277.600 C 262.669 279.690,261.318 281.490,261.197 281.600 C 261.076 281.710,259.814 283.383,258.393 285.318 C 255.606 289.112,253.605 290.041,253.272 287.695 C 253.166 286.949,257.523 280.234,258.784 279.200 C 258.918 279.090,260.686 276.707,262.713 273.905 C 269.290 264.809,271.609 263.410,275.641 266.110 M108.915 266.500 C 109.454 266.904,109.603 267.844,109.691 271.400 L 109.800 275.800 127.500 275.904 L 145.200 276.008 145.200 271.418 C 145.200 266.423,145.688 265.377,147.553 266.375 C 148.743 267.012,148.800 267.524,148.800 277.659 C 148.800 287.735,148.634 288.800,147.066 288.800 C 145.447 288.800,145.200 288.100,145.200 283.520 L 145.200 279.200 127.400 279.200 L 109.600 279.200 109.600 283.520 C 109.600 288.115,109.355 288.800,107.710 288.800 C 106.207 288.800,106.000 287.393,106.000 277.174 C 106.000 268.133,106.045 267.555,106.800 266.800 C 107.735 265.865,108.014 265.825,108.915 266.500 M341.226 266.414 C 342.091 266.877,342.255 268.385,341.520 269.120 C 341.161 269.479,336.476 269.600,322.902 269.600 L 304.764 269.600 303.782 270.582 C 302.088 272.275,302.661 274.711,304.959 275.584 C 305.652 275.848,312.160 276.000,322.733 276.000 L 339.414 276.000 340.903 277.011 C 345.120 279.877,344.395 286.615,339.674 288.442 C 338.186 289.017,302.262 288.902,301.680 288.320 C 301.015 287.655,301.080 286.795,301.862 285.931 C 302.485 285.243,303.600 285.200,320.730 285.200 C 341.132 285.200,340.400 285.304,340.400 282.400 C 340.400 279.331,340.967 279.426,321.187 279.200 C 304.269 279.007,303.619 278.971,302.553 278.175 C 297.848 274.660,299.068 267.714,304.642 266.287 C 306.231 265.880,340.451 265.999,341.226 266.414 M59.120 266.880 C 59.434 267.194,59.600 268.853,59.600 271.680 L 59.600 276.000 68.054 276.000 C 72.819 276.000,77.225 275.812,78.154 275.568 C 79.059 275.331,80.520 274.941,81.400 274.702 C 83.865 274.032,88.886 271.432,92.815 268.790 C 96.576 266.261,97.206 266.043,97.996 266.995 C 99.340 268.615,95.761 271.820,88.162 275.799 C 86.822 276.501,85.499 277.215,85.223 277.386 C 84.896 277.588,85.664 278.169,87.439 279.063 C 94.122 282.426,98.968 286.344,98.371 287.900 C 97.833 289.301,96.423 289.009,93.363 286.861 C 84.672 280.763,80.711 279.600,68.634 279.600 L 59.600 279.600 59.600 283.777 C 59.600 288.647,58.038 290.758,56.306 288.229 C 55.839 287.548,55.939 268.061,56.414 267.174 C 56.877 266.309,58.385 266.145,59.120 266.880 M241.088 267.239 C 248.350 271.268,248.738 282.922,241.764 287.541 L 239.863 288.800 221.596 288.800 L 203.328 288.800 202.864 287.781 C 202.251 286.436,202.258 278.349,202.873 276.999 C 203.256 276.159,203.581 275.983,204.573 276.080 L 205.800 276.200 205.913 280.700 L 206.026 285.200 222.433 285.200 C 240.501 285.200,240.244 285.233,242.124 282.700 C 244.489 279.516,244.262 274.741,241.614 271.977 C 239.463 269.730,238.257 269.600,219.588 269.600 L 203.215 269.600 202.963 268.595 C 202.404 266.367,202.119 266.400,221.637 266.400 C 239.106 266.400,239.615 266.422,241.088 267.239 " stroke="none" fill="#ffffff" fill-rule="evenodd"></path><path id="path1" d="M170.800 141.600 C 170.800 151.500,170.858 159.600,170.928 159.600 C 170.998 159.600,171.628 159.089,172.328 158.464 L 173.600 157.329 173.600 140.464 L 173.600 123.600 172.200 123.600 L 170.800 123.600 170.800 141.600 " stroke="none" fill="#e60012" fill-rule="evenodd"></path><path id="path2" d="M141.991 112.500 C 139.505 113.757,137.724 116.243,137.410 118.892 C 136.751 124.444,137.380 228.563,138.080 229.841 C 138.884 231.309,141.288 233.501,142.670 234.027 C 143.989 234.528,253.611 234.528,254.930 234.027 C 256.312 233.501,258.716 231.309,259.520 229.841 C 260.151 228.690,260.200 224.574,260.200 173.200 C 260.200 111.993,260.386 116.464,257.728 113.921 C 255.148 111.453,258.879 111.600,198.698 111.600 L 143.770 111.600 141.991 112.500 M255.046 113.165 C 256.847 113.983,258.435 115.841,259.145 117.960 C 259.808 119.941,259.733 226.865,259.067 228.701 C 258.498 230.269,256.761 232.179,255.053 233.114 C 253.887 233.753,249.994 233.800,198.800 233.800 L 143.800 233.800 141.939 232.706 C 140.557 231.893,139.810 231.075,139.039 229.527 L 138.000 227.443 138.002 173.421 C 138.004 137.495,138.143 118.902,138.418 117.912 C 138.970 115.923,140.611 114.048,142.583 113.152 C 145.125 111.998,252.503 112.010,255.046 113.165 M198.132 171.669 C 171.031 198.767,148.771 221.268,148.666 221.671 C 148.317 223.002,149.742 224.274,150.892 223.658 C 152.745 222.666,250.000 125.045,250.000 124.176 C 250.000 123.134,249.266 122.400,248.224 122.400 C 247.673 122.400,231.365 138.441,198.132 171.669 M172.901 266.259 C 172.066 266.670,170.281 268.678,167.901 271.884 C 165.866 274.626,162.525 279.121,160.478 281.874 C 156.707 286.944,156.210 288.200,157.976 288.200 C 158.764 288.200,160.099 286.662,165.268 279.800 C 176.553 264.819,174.909 264.834,185.992 279.600 C 192.515 288.290,194.200 289.875,194.200 287.317 C 194.200 286.141,180.185 267.380,178.553 266.371 C 177.044 265.438,174.662 265.391,172.901 266.259 M270.600 265.940 C 268.943 266.479,268.281 267.241,261.015 276.973 C 253.700 286.772,252.966 288.079,254.650 288.321 C 255.332 288.419,256.823 286.665,262.530 279.055 C 273.170 264.864,271.752 264.804,283.023 279.916 C 289.405 288.474,290.707 289.694,291.123 287.511 C 291.228 286.963,284.296 277.124,280.914 273.020 C 280.560 272.591,279.389 271.031,278.311 269.554 C 275.751 266.046,273.508 264.994,270.600 265.940 M57.067 267.067 C 56.460 267.674,56.769 288.302,57.388 288.540 C 58.729 289.055,59.200 287.712,59.200 283.371 L 59.200 279.200 66.500 279.110 C 78.843 278.958,81.574 279.420,87.225 282.614 C 88.574 283.376,89.767 284.000,89.877 284.000 C 89.986 284.000,91.525 284.998,93.296 286.218 C 96.632 288.516,97.715 288.783,97.920 287.358 C 98.096 286.130,92.938 282.361,87.037 279.405 C 83.303 277.535,83.259 277.789,87.705 275.486 C 93.212 272.633,97.800 269.230,97.800 267.998 C 97.800 266.396,96.675 266.606,93.632 268.777 C 92.073 269.890,90.716 270.800,90.616 270.800 C 90.517 270.800,89.797 271.234,89.016 271.764 C 83.864 275.259,78.798 276.368,67.900 276.386 L 59.200 276.400 59.200 272.080 C 59.200 267.421,58.457 265.676,57.067 267.067 M106.800 277.350 C 106.800 288.235,106.867 288.687,108.404 288.199 C 109.138 287.966,109.200 287.588,109.200 283.373 L 109.200 278.800 127.400 278.800 L 145.600 278.800 145.600 283.151 C 145.600 287.676,145.993 288.795,147.395 288.257 C 147.914 288.058,148.000 286.514,148.000 277.386 L 148.000 266.747 146.900 266.873 L 145.800 267.000 145.600 271.600 L 145.400 276.200 127.400 276.200 L 109.400 276.200 109.200 271.600 L 109.000 267.000 107.900 266.873 L 106.800 266.747 106.800 277.350 M203.455 267.400 C 202.761 269.210,202.665 269.200,220.583 269.200 C 238.407 269.200,239.039 269.257,241.465 271.087 C 245.337 274.008,244.885 281.974,240.692 284.700 L 239.000 285.800 222.513 285.920 L 206.026 286.041 205.812 285.120 C 205.695 284.614,205.554 282.490,205.500 280.400 C 205.401 276.640,205.390 276.600,204.400 276.600 L 203.400 276.600 203.284 281.600 C 203.221 284.350,203.269 287.005,203.392 287.500 L 203.615 288.400 221.308 288.391 C 237.607 288.383,239.127 288.325,240.617 287.648 C 248.019 284.285,248.116 271.332,240.766 267.582 C 238.678 266.517,203.859 266.347,203.455 267.400 M302.492 267.840 C 298.853 270.708,299.328 276.029,303.400 278.000 C 304.972 278.761,305.870 278.800,321.904 278.800 L 338.755 278.800 339.815 279.711 C 341.323 281.009,341.348 283.234,339.871 284.711 L 338.783 285.800 320.503 285.919 C 301.552 286.043,301.185 286.078,302.042 287.678 C 302.646 288.807,337.880 288.789,340.006 287.659 C 343.846 285.619,344.334 280.711,341.006 277.600 L 339.937 276.600 322.133 276.400 L 304.330 276.200 303.365 275.078 C 302.047 273.545,302.083 271.626,303.455 270.255 L 304.509 269.200 322.828 269.200 C 340.767 269.200,341.151 269.184,341.399 268.404 C 341.901 266.820,341.661 266.800,322.476 266.804 L 303.800 266.809 302.492 267.840 " stroke="none" fill="#1e95d4" fill-rule="evenodd"></path><path id="path3" d="M171.400 123.200 C 171.259 123.428,171.604 123.600,172.200 123.600 C 172.796 123.600,173.141 123.428,173.000 123.200 C 172.864 122.980,172.504 122.800,172.200 122.800 C 171.896 122.800,171.536 122.980,171.400 123.200 M173.695 140.451 L 173.600 157.502 172.700 158.163 L 171.800 158.823 172.723 158.385 C 174.062 157.750,174.018 158.425,173.900 140.200 L 173.791 123.400 173.695 140.451 M170.496 142.100 C 170.406 158.871,170.522 161.020,171.438 159.538 C 171.614 159.254,171.548 159.185,171.266 159.359 C 170.926 159.570,170.781 155.097,170.700 141.921 L 170.591 124.200 170.496 142.100 " stroke="none" fill="#eb3847" fill-rule="evenodd"></path><path id="path4" d="M259.394 173.200 C 259.394 203.230,259.442 215.515,259.500 200.500 C 259.558 185.485,259.558 160.915,259.500 145.900 C 259.442 130.885,259.394 143.170,259.394 173.200 M194.300 199.557 C 193.068 200.806,193.410 201.229,204.916 212.709 C 216.482 224.249,217.328 224.912,218.720 223.520 C 219.684 222.556,218.999 221.738,207.701 210.370 C 196.108 198.705,195.570 198.270,194.300 199.557 M172.131 233.900 C 186.833 233.958,210.773 233.958,225.331 233.900 C 239.889 233.842,227.860 233.794,198.600 233.794 C 169.340 233.794,157.429 233.842,172.131 233.900 M171.500 234.700 C 186.515 234.758,211.085 234.758,226.100 234.700 C 241.115 234.642,228.830 234.594,198.800 234.594 C 168.770 234.594,156.485 234.642,171.500 234.700 M314.127 266.700 C 319.147 266.763,327.247 266.763,332.127 266.700 C 337.007 266.636,332.900 266.584,323.000 266.584 C 313.100 266.584,309.107 266.636,314.127 266.700 M56.574 277.600 C 56.574 283.210,56.630 285.505,56.699 282.700 C 56.768 279.895,56.768 275.305,56.699 272.500 C 56.630 269.695,56.574 271.990,56.574 277.600 M148.173 277.400 C 148.173 282.900,148.230 285.205,148.299 282.523 C 148.368 279.841,148.368 275.341,148.299 272.523 C 148.230 269.705,148.174 271.900,148.173 277.400 M106.573 277.600 C 106.573 282.990,106.630 285.195,106.699 282.500 C 106.768 279.805,106.768 275.395,106.699 272.700 C 106.630 270.005,106.573 272.210,106.573 277.600 M109.462 276.100 C 109.564 276.265,117.636 276.400,127.400 276.400 C 137.164 276.400,145.236 276.265,145.338 276.100 C 145.440 275.935,137.368 275.800,127.400 275.800 C 117.432 275.800,109.360 275.935,109.462 276.100 M314.127 276.300 C 318.707 276.364,326.087 276.364,330.527 276.299 C 334.967 276.235,331.220 276.183,322.200 276.183 C 313.180 276.183,309.547 276.235,314.127 276.300 M205.748 281.200 C 205.748 283.510,205.814 284.455,205.895 283.300 C 205.976 282.145,205.976 280.255,205.895 279.100 C 205.814 277.945,205.748 278.890,205.748 281.200 M74.100 279.076 C 74.485 279.176,75.115 279.176,75.500 279.076 C 75.885 278.975,75.570 278.893,74.800 278.893 C 74.030 278.893,73.715 278.975,74.100 279.076 M311.127 285.900 C 316.037 285.963,323.957 285.963,328.727 285.900 C 333.497 285.836,329.480 285.784,319.800 285.784 C 310.120 285.784,306.217 285.836,311.127 285.900 " stroke="none" fill="#8fc31f" fill-rule="evenodd"></path><path id="path5" d="M170.623 123.689 C 169.785 124.885,169.666 160.410,170.500 160.385 C 170.775 160.377,171.720 159.727,172.600 158.940 C 173.918 157.762,173.973 157.662,172.912 158.374 C 172.204 158.849,171.518 159.409,171.388 159.619 C 170.535 160.999,170.400 158.631,170.400 142.289 C 170.400 126.907,170.482 124.461,171.023 123.689 C 171.365 123.200,171.555 122.800,171.445 122.800 C 171.335 122.800,170.965 123.200,170.623 123.689 M174.183 140.600 C 174.183 149.840,174.236 153.563,174.300 148.873 C 174.364 144.183,174.364 136.623,174.299 132.073 C 174.235 127.523,174.183 131.360,174.183 140.600 " stroke="none" fill="#f3848d" fill-rule="evenodd"></path><path id="path6" d="M209.270 184.526 C 208.791 185.035,208.400 185.622,208.400 185.831 C 208.400 186.509,246.598 224.400,247.281 224.400 C 248.133 224.400,249.200 223.333,249.200 222.481 C 249.200 221.762,211.290 183.600,210.575 183.600 C 210.336 183.600,209.748 184.017,209.270 184.526 " stroke="none" fill="#f8b62d" fill-rule="evenodd"></path><path id="path7" d="M142.938 111.506 C 142.684 111.668,167.822 111.800,198.800 111.800 C 229.778 111.800,254.916 111.668,254.662 111.506 C 254.408 111.344,229.270 111.212,198.800 111.212 C 168.330 111.212,143.192 111.344,142.938 111.506 M140.200 113.050 C 139.540 113.612,139.360 113.888,139.800 113.665 C 140.996 113.058,142.257 112.025,141.800 112.027 C 141.580 112.028,140.860 112.488,140.200 113.050 M257.270 113.533 C 260.689 116.608,260.435 111.571,260.311 173.876 C 260.250 204.278,260.337 228.783,260.504 228.330 C 260.671 227.878,260.761 202.719,260.704 172.422 L 260.600 117.337 259.400 115.437 C 258.740 114.391,257.570 113.157,256.800 112.694 C 255.560 111.948,255.614 112.044,257.270 113.533 M172.100 112.700 C 186.785 112.758,210.815 112.758,225.500 112.700 C 240.185 112.642,228.170 112.594,198.800 112.594 C 169.430 112.594,157.415 112.642,172.100 112.700 M142.800 113.089 C 141.526 113.567,140.170 114.779,139.472 116.062 C 138.984 116.957,138.951 117.135,139.370 116.600 C 140.736 114.859,141.789 113.923,142.967 113.406 C 144.157 112.884,144.023 112.629,142.800 113.089 M255.167 113.788 C 257.278 115.032,257.833 115.699,258.475 117.758 C 258.743 118.615,259.030 119.109,259.115 118.855 C 259.615 117.356,256.624 113.666,254.392 113.029 C 253.830 112.869,254.165 113.197,255.167 113.788 M137.467 116.267 C 137.320 116.413,137.211 116.908,137.225 117.367 C 137.249 118.133,137.282 118.123,137.634 117.242 C 138.026 116.263,137.944 115.789,137.467 116.267 M138.250 119.250 C 137.890 121.052,138.035 225.966,138.400 227.400 C 138.568 228.060,138.727 203.715,138.753 173.300 C 138.779 142.885,138.733 118.000,138.650 118.000 C 138.567 118.000,138.388 118.563,138.250 119.250 M136.994 173.000 C 136.994 203.140,137.042 215.411,137.100 200.269 C 137.158 185.127,137.158 160.467,137.100 145.469 C 137.042 130.471,136.994 142.860,136.994 173.000 M214.198 130.099 C 209.577 134.774,198.784 145.800,190.212 154.600 C 181.641 163.400,172.192 173.097,169.214 176.148 C 161.020 184.546,156.440 185.427,153.300 179.212 L 152.400 177.430 152.400 150.744 C 152.400 121.995,152.458 122.800,150.400 122.800 C 148.302 122.800,148.365 121.851,148.487 151.742 L 148.600 179.400 149.485 181.054 C 151.658 185.117,154.782 186.986,159.400 186.986 C 164.614 186.986,162.878 188.541,198.015 152.400 C 206.036 144.150,215.298 134.651,218.599 131.292 C 225.260 124.512,225.900 123.534,224.448 122.358 C 222.991 121.179,223.081 121.111,214.198 130.099 M197.579 171.584 C 164.141 205.025,148.000 221.433,148.000 221.984 C 148.000 222.998,149.362 224.411,150.300 224.368 C 150.741 224.349,150.592 224.188,149.899 223.935 C 146.776 222.794,144.024 225.779,197.845 171.931 C 247.337 122.415,247.402 122.352,248.800 122.565 C 249.779 122.713,250.020 122.662,249.600 122.395 C 247.857 121.283,248.187 120.972,197.579 171.584 M250.054 123.999 C 250.013 124.761,238.232 136.791,200.500 174.599 L 151.000 224.200 200.736 174.564 C 243.725 131.661,250.448 124.797,250.291 123.964 L 250.109 123.000 250.054 123.999 M174.583 140.800 C 174.583 149.930,174.635 153.665,174.700 149.100 C 174.764 144.535,174.764 137.065,174.700 132.500 C 174.635 127.935,174.583 131.670,174.583 140.800 M227.000 205.200 C 237.338 215.540,245.887 224.000,245.997 224.000 C 246.107 224.000,237.738 215.540,227.400 205.200 C 217.062 194.860,208.513 186.400,208.403 186.400 C 208.293 186.400,216.662 194.860,227.000 205.200 M194.002 199.458 L 192.722 200.917 204.261 212.483 C 210.607 218.845,216.137 224.237,216.550 224.466 C 217.430 224.954,219.307 223.789,219.538 222.611 C 219.665 221.968,196.303 198.000,195.550 198.000 C 195.403 198.000,194.707 198.656,194.002 199.458 M207.701 210.370 C 218.999 221.738,219.684 222.556,218.720 223.520 C 217.328 224.912,216.482 224.249,204.916 212.709 C 193.410 201.229,193.068 200.806,194.300 199.557 C 195.570 198.270,196.108 198.705,207.701 210.370 M258.486 228.661 C 258.239 229.465,258.196 229.960,258.390 229.761 C 258.782 229.361,259.389 227.200,259.110 227.200 C 259.014 227.200,258.732 227.858,258.486 228.661 M137.200 228.869 C 137.199 230.725,141.783 234.820,143.800 234.765 C 144.278 234.752,143.970 234.513,143.036 234.171 C 140.733 233.327,139.012 231.858,138.051 229.919 C 137.583 228.973,137.200 228.501,137.200 228.869 M138.800 229.175 C 138.800 229.900,141.566 232.699,142.506 232.924 C 143.333 233.122,143.343 233.103,142.646 232.669 C 141.045 231.672,139.600 230.305,139.600 229.788 C 139.600 229.491,139.420 229.136,139.200 229.000 C 138.980 228.864,138.800 228.943,138.800 229.175 M259.051 230.701 C 258.238 232.273,257.166 233.135,254.944 234.003 C 253.875 234.421,253.324 234.771,253.720 234.781 C 254.641 234.805,256.732 233.751,257.938 232.653 C 258.851 231.823,260.221 229.600,259.821 229.600 C 259.711 229.600,259.364 230.095,259.051 230.701 M257.033 231.163 C 256.653 231.583,255.809 232.148,255.158 232.417 C 254.507 232.687,254.053 232.987,254.150 233.083 C 254.431 233.364,256.532 232.160,257.363 231.241 C 257.782 230.778,258.034 230.400,257.924 230.400 C 257.814 230.400,257.413 230.744,257.033 231.163 M171.300 233.500 C 186.425 233.558,211.175 233.558,226.300 233.500 C 241.425 233.442,229.050 233.394,198.800 233.394 C 168.550 233.394,156.175 233.442,171.300 233.500 M172.365 266.112 C 171.060 266.992,168.251 270.399,164.817 275.268 C 161.801 279.545,163.484 277.668,167.300 272.500 C 171.505 266.804,171.775 266.529,173.896 265.772 C 174.879 265.421,175.109 265.229,174.559 265.218 C 174.097 265.208,173.109 265.610,172.365 266.112 M177.315 265.685 C 178.346 265.958,179.331 266.680,180.399 267.943 C 181.262 268.964,182.350 270.250,182.817 270.800 C 183.285 271.350,183.068 270.926,182.336 269.858 C 180.408 267.047,178.223 265.192,176.899 265.241 C 175.933 265.278,175.984 265.331,177.315 265.685 M269.400 265.937 C 268.740 266.340,267.930 267.007,267.600 267.418 C 267.268 267.831,267.679 267.654,268.517 267.023 C 272.284 264.183,275.140 265.175,279.403 270.804 C 281.068 273.002,282.520 274.800,282.630 274.800 C 282.901 274.800,278.567 268.894,277.248 267.464 C 275.093 265.129,271.776 264.484,269.400 265.937 M106.800 266.800 C 106.045 267.555,106.000 268.133,106.000 277.174 C 106.000 287.393,106.207 288.800,107.710 288.800 C 109.354 288.800,109.600 288.114,109.600 283.524 L 109.600 279.208 127.400 279.098 L 145.200 278.988 127.300 278.994 L 109.400 279.000 109.200 283.596 C 108.989 288.452,108.322 289.675,106.926 287.767 C 105.795 286.220,106.260 267.093,107.439 266.640 C 108.938 266.065,109.200 266.747,109.200 271.219 C 109.200 273.603,109.335 275.637,109.500 275.739 C 110.177 276.160,109.589 267.019,108.906 266.500 C 108.017 265.825,107.735 265.865,106.800 266.800 M145.900 266.432 C 145.291 266.787,145.211 267.420,145.284 271.320 L 145.369 275.800 145.499 271.623 C 145.653 266.693,146.243 265.500,147.771 267.029 C 148.627 267.884,148.719 286.611,147.874 287.767 C 146.504 289.640,145.813 288.444,145.579 283.796 L 145.358 279.400 145.279 283.620 C 145.195 288.115,145.431 288.800,147.066 288.800 C 148.639 288.800,148.800 287.743,148.800 277.426 C 148.800 266.268,148.451 264.946,145.900 266.432 M304.600 266.285 C 304.160 266.391,303.632 266.637,303.427 266.832 C 303.222 267.027,303.671 267.009,304.424 266.793 C 306.951 266.068,340.626 266.283,341.371 267.029 C 341.717 267.374,342.000 267.471,342.000 267.243 C 342.000 266.126,340.003 266.001,322.926 266.046 C 313.287 266.072,305.040 266.179,304.600 266.285 M56.414 267.174 C 55.510 268.863,55.918 288.800,56.857 288.800 C 57.070 288.800,57.052 288.471,56.814 288.026 C 56.370 287.197,56.215 268.547,56.643 267.433 C 56.776 267.085,57.313 266.800,57.835 266.800 C 59.014 266.800,59.169 267.395,59.300 272.400 L 59.400 276.200 67.800 276.213 L 76.200 276.226 67.900 276.105 L 59.600 275.984 59.600 271.672 C 59.600 268.852,59.434 267.194,59.120 266.880 C 58.385 266.145,56.877 266.309,56.414 267.174 M95.200 267.242 L 94.200 268.067 95.455 267.373 C 96.952 266.547,97.983 266.831,98.046 268.087 C 98.082 268.795,98.135 268.838,98.279 268.281 C 98.734 266.529,96.840 265.890,95.200 267.242 M203.204 266.995 C 202.921 267.336,202.818 268.018,202.963 268.595 L 203.215 269.600 219.908 269.507 L 236.600 269.413 220.000 269.207 L 203.400 269.000 203.400 268.000 L 203.400 267.000 221.862 267.000 C 232.016 267.000,240.240 266.865,240.138 266.700 C 239.743 266.061,203.741 266.348,203.204 266.995 M241.400 267.807 C 241.840 268.126,242.807 268.976,243.548 269.694 C 244.556 270.670,244.782 270.776,244.443 270.116 C 243.964 269.183,241.576 267.191,240.962 267.213 C 240.763 267.220,240.960 267.487,241.400 267.807 M301.036 268.431 C 300.466 269.108,300.006 269.873,300.013 270.131 C 300.020 270.389,300.289 270.240,300.612 269.800 C 300.934 269.360,301.577 268.595,302.041 268.100 C 302.505 267.605,302.701 267.200,302.478 267.200 C 302.254 267.200,301.605 267.754,301.036 268.431 M91.800 269.448 C 90.700 270.220,88.945 271.293,87.900 271.833 C 86.855 272.372,86.000 272.904,86.000 273.015 C 86.000 273.126,86.765 272.827,87.700 272.352 C 89.590 271.391,94.000 268.474,94.000 268.185 C 94.000 267.909,93.960 267.932,91.800 269.448 M341.462 268.583 C 341.253 269.127,339.064 269.200,323.066 269.200 C 303.837 269.200,302.800 269.303,302.800 271.211 C 302.800 271.405,303.242 271.122,303.782 270.582 L 304.764 269.600 322.933 269.600 C 341.176 269.600,343.182 269.449,341.906 268.173 C 341.792 268.059,341.592 268.243,341.462 268.583 M263.270 273.056 C 261.438 275.602,260.111 277.579,260.321 277.449 C 260.903 277.089,267.222 268.398,266.891 268.413 C 266.731 268.421,265.101 270.510,263.270 273.056 M172.933 270.100 C 172.259 270.815,168.961 275.090,165.603 279.600 C 162.245 284.110,159.217 288.025,158.873 288.300 C 158.509 288.590,158.443 288.800,158.714 288.800 C 158.971 288.800,161.826 285.245,165.060 280.900 C 168.294 276.555,171.732 272.055,172.701 270.900 C 174.673 268.548,174.797 268.120,172.933 270.100 M177.200 268.930 C 177.200 269.318,178.835 270.899,179.032 270.702 C 179.123 270.611,178.748 270.114,178.198 269.599 C 177.649 269.083,177.200 268.782,177.200 268.930 M270.105 269.500 C 268.934 270.546,266.681 273.600,267.080 273.600 C 267.271 273.600,267.722 273.105,268.083 272.500 C 268.443 271.895,269.313 270.815,270.016 270.100 C 271.369 268.725,271.429 268.317,270.105 269.500 M274.000 268.930 C 274.000 269.318,275.635 270.899,275.832 270.702 C 275.923 270.611,275.548 270.114,274.998 269.599 C 274.449 269.083,274.000 268.782,274.000 268.930 M96.562 270.062 L 95.800 270.924 96.900 270.216 C 98.034 269.486,98.249 269.200,97.662 269.200 C 97.476 269.200,96.981 269.588,96.562 270.062 M237.400 269.836 C 237.840 269.952,238.736 270.221,239.391 270.434 C 240.232 270.708,240.457 270.697,240.156 270.396 C 239.922 270.162,239.026 269.893,238.165 269.798 C 237.304 269.703,236.960 269.720,237.400 269.836 M94.200 271.823 C 93.454 272.456,93.315 272.691,93.833 272.443 C 94.576 272.087,95.925 270.797,95.549 270.802 C 95.467 270.803,94.860 271.263,94.200 271.823 M241.594 271.803 C 243.187 273.721,243.321 273.845,242.886 272.996 C 242.659 272.553,242.052 271.834,241.537 271.398 C 240.633 270.634,240.635 270.648,241.594 271.803 M299.714 272.600 C 299.717 273.700,299.795 274.103,299.887 273.495 C 299.979 272.886,299.977 271.986,299.882 271.495 C 299.787 271.003,299.711 271.500,299.714 272.600 M180.340 272.818 C 181.071 273.798,182.329 275.538,183.135 276.685 C 183.941 277.831,184.733 278.776,184.895 278.785 C 185.258 278.804,180.102 271.710,179.467 271.318 C 179.215 271.162,179.608 271.837,180.340 272.818 M276.451 271.957 C 280.347 277.334,281.447 278.762,281.708 278.780 C 281.877 278.791,280.730 277.090,279.159 275.000 C 277.588 272.910,276.213 271.200,276.102 271.200 C 275.992 271.200,276.149 271.541,276.451 271.957 M186.663 276.100 C 188.339 278.355,190.800 281.681,192.131 283.491 C 193.462 285.301,194.621 286.713,194.705 286.628 C 194.873 286.460,184.088 272.000,183.795 272.000 C 183.695 272.000,184.986 273.845,186.663 276.100 M91.000 273.829 C 90.120 274.381,88.617 275.198,87.661 275.644 C 86.705 276.090,86.010 276.544,86.118 276.651 C 86.339 276.873,90.719 274.574,92.098 273.512 C 93.403 272.507,92.853 272.666,91.000 273.829 M246.174 276.839 C 246.188 278.688,246.072 280.740,245.916 281.400 L 245.633 282.600 246.198 281.400 C 246.794 280.136,246.953 275.533,246.445 274.239 C 246.280 273.818,246.159 274.978,246.174 276.839 M82.100 274.448 C 81.385 274.654,80.800 274.911,80.800 275.019 C 80.800 275.309,82.938 274.753,83.380 274.348 C 83.816 273.949,83.830 273.948,82.100 274.448 M243.246 274.400 C 243.265 274.730,243.424 275.450,243.600 276.000 L 243.920 277.000 243.954 276.000 C 243.973 275.450,243.813 274.730,243.600 274.400 C 243.255 273.867,243.216 273.867,243.246 274.400 M264.170 277.100 C 262.904 278.805,261.600 280.515,261.272 280.900 C 260.944 281.285,260.839 281.593,261.038 281.585 C 261.237 281.576,262.059 280.631,262.865 279.485 C 263.671 278.338,264.901 276.635,265.600 275.700 C 266.298 274.765,266.780 274.000,266.670 274.000 C 266.560 274.000,265.435 275.395,264.170 277.100 M303.150 274.673 C 303.603 275.553,305.059 276.275,305.497 275.837 C 305.627 275.706,305.440 275.600,305.082 275.600 C 304.724 275.600,304.042 275.195,303.566 274.700 C 302.704 273.803,302.703 273.803,303.150 274.673 M300.000 275.188 C 300.000 275.983,303.023 278.802,303.853 278.781 C 304.351 278.768,304.138 278.534,303.214 278.081 C 302.452 277.706,301.417 276.788,300.914 276.041 C 300.411 275.293,300.000 274.909,300.000 275.188 M77.800 275.600 L 77.000 275.944 77.800 275.932 C 78.240 275.926,79.050 275.776,79.600 275.600 L 80.600 275.280 79.600 275.268 C 79.050 275.262,78.240 275.411,77.800 275.600 M283.035 275.623 C 283.274 275.940,284.587 277.685,285.953 279.500 C 287.319 281.315,288.515 282.800,288.613 282.800 C 288.896 282.800,283.572 275.629,283.062 275.324 C 282.722 275.119,282.715 275.198,283.035 275.623 M202.864 277.019 C 202.603 277.593,202.400 279.941,202.400 282.400 C 202.400 284.859,202.603 287.207,202.864 287.781 L 203.328 288.800 221.621 288.800 L 239.913 288.800 241.815 287.489 C 242.861 286.768,243.994 285.733,244.334 285.189 C 244.706 284.593,244.259 284.876,243.209 285.904 C 240.611 288.446,240.575 288.450,221.000 288.318 L 203.400 288.200 203.288 282.655 C 203.213 278.907,203.326 276.930,203.637 276.555 C 203.891 276.250,203.925 276.000,203.713 276.000 C 203.502 276.000,203.120 276.458,202.864 277.019 M338.800 276.286 C 339.130 276.408,339.760 276.674,340.200 276.876 C 340.987 277.238,340.988 277.234,340.224 276.622 C 339.796 276.280,339.166 276.014,338.824 276.032 C 338.285 276.059,338.282 276.093,338.800 276.286 M84.476 277.284 C 84.098 277.662,84.485 278.013,86.253 278.893 C 87.497 279.512,88.600 279.933,88.705 279.828 C 88.809 279.724,87.978 279.238,86.857 278.748 C 85.256 278.049,84.914 277.745,85.259 277.329 C 85.809 276.667,85.133 276.627,84.476 277.284 M341.976 278.346 C 342.495 279.086,343.054 280.256,343.219 280.946 C 343.453 281.927,343.527 282.000,343.559 281.280 C 343.608 280.172,342.718 278.355,341.742 277.571 C 341.252 277.177,341.325 277.418,341.976 278.346 M159.600 282.217 C 156.330 286.774,155.997 287.593,157.081 288.416 C 157.695 288.882,157.727 288.880,157.300 288.401 C 156.440 287.437,156.712 286.827,159.998 282.354 C 161.757 279.959,163.062 278.008,162.898 278.019 C 162.734 278.029,161.250 279.918,159.600 282.217 M243.649 278.800 C 243.616 279.130,243.489 279.850,243.367 280.400 C 243.175 281.264,243.207 281.303,243.599 280.688 C 243.848 280.297,243.975 279.577,243.881 279.088 C 243.786 278.600,243.682 278.470,243.649 278.800 M321.858 279.189 C 337.710 279.387,338.767 279.445,339.558 280.162 C 340.608 281.112,340.681 283.403,339.700 284.569 C 339.001 285.399,339.001 285.399,339.900 284.638 C 340.910 283.783,341.122 281.452,340.287 280.365 C 339.123 278.849,338.474 278.798,321.526 278.889 L 305.000 278.979 321.858 279.189 M59.200 283.520 C 59.200 286.410,59.035 288.026,58.700 288.401 C 58.275 288.878,58.304 288.882,58.900 288.432 C 59.488 287.987,59.600 287.235,59.600 283.726 L 59.600 279.549 69.588 279.675 C 75.082 279.744,79.267 279.678,78.888 279.528 C 78.510 279.379,73.925 279.244,68.700 279.228 L 59.200 279.200 59.200 283.520 M186.400 280.900 C 187.099 281.835,188.329 283.538,189.135 284.685 C 189.941 285.831,190.738 286.776,190.908 286.785 C 191.077 286.793,189.930 285.090,188.359 283.000 C 186.788 280.910,185.419 279.200,185.317 279.200 C 185.214 279.200,185.702 279.965,186.400 280.900 M255.873 283.019 C 253.157 286.795,252.658 288.313,254.000 288.719 C 254.484 288.865,254.504 288.798,254.100 288.370 C 253.252 287.471,253.507 286.872,256.399 282.973 C 257.939 280.898,259.064 279.206,258.899 279.213 C 258.735 279.221,257.373 280.933,255.873 283.019 M282.425 279.856 C 284.378 282.763,288.673 288.394,289.059 288.554 C 289.312 288.658,287.993 286.731,286.129 284.272 C 282.986 280.127,281.078 277.852,282.425 279.856 M80.600 280.400 C 81.796 280.914,82.795 280.914,82.000 280.400 C 81.670 280.187,81.040 280.022,80.600 280.034 L 79.800 280.056 80.600 280.400 M91.995 281.881 C 97.819 286.089,99.017 287.509,97.535 288.449 C 97.117 288.713,97.113 288.789,97.513 288.794 C 100.474 288.829,96.299 283.640,91.600 281.443 C 91.270 281.289,91.448 281.486,91.995 281.881 M242.224 282.619 C 241.857 283.180,240.981 283.989,240.278 284.418 C 239.575 284.846,239.211 285.198,239.469 285.199 C 240.087 285.200,242.309 283.318,242.823 282.357 C 243.415 281.251,243.002 281.432,242.224 282.619 M258.770 284.300 C 257.821 285.565,256.595 287.095,256.047 287.700 C 255.499 288.305,255.226 288.800,255.440 288.800 C 255.654 288.800,256.529 287.855,257.384 286.700 C 258.239 285.545,259.379 284.015,259.917 283.300 C 260.455 282.585,260.805 282.000,260.696 282.000 C 260.587 282.000,259.720 283.035,258.770 284.300 M87.200 282.984 C 87.200 283.094,87.963 283.573,88.897 284.049 C 89.830 284.525,91.838 285.789,93.359 286.857 C 94.881 287.926,96.288 288.800,96.486 288.800 C 96.994 288.800,90.936 284.690,88.891 283.647 C 87.961 283.172,87.200 282.874,87.200 282.984 M343.254 283.611 C 343.225 284.167,342.912 285.034,342.559 285.537 C 342.207 286.040,342.013 286.547,342.130 286.663 C 342.515 287.049,343.652 284.361,343.479 283.473 C 343.327 282.694,343.303 282.709,343.254 283.611 M289.962 284.779 C 291.304 286.707,291.476 287.547,290.700 288.370 C 290.296 288.798,290.316 288.865,290.800 288.719 C 292.015 288.353,291.699 286.298,290.168 284.600 L 288.725 283.000 289.962 284.779 M206.200 285.600 C 206.492 286.073,235.940 286.073,237.800 285.600 C 238.460 285.432,231.564 285.273,222.476 285.247 C 211.551 285.216,206.037 285.336,206.200 285.600 M301.862 285.931 C 301.080 286.795,301.015 287.655,301.680 288.320 C 303.293 289.933,341.600 288.755,341.600 287.092 C 341.600 286.863,341.221 287.019,340.758 287.438 C 339.552 288.530,302.873 288.852,301.982 287.778 C 300.404 285.877,300.934 285.815,320.643 285.594 L 339.000 285.388 320.762 285.294 C 303.534 285.205,302.487 285.241,301.862 285.931 " stroke="none" fill="#c9caca" fill-rule="evenodd"></path></g></svg>